 http://www.grinshare.com/img/ILXALR.png
 
http://www.grinshare.com/img/5U8EMF.png
 
http://www.grinshare.com/img/ZBOP7G.png
 
http://www.grinshare.com/img/4IJJYJ.png
 
http://www.grinshare.com/img/1H5TRH.png
 
http://www.grinshare.com/img/NQIDYW.png

This romantic comedy shows how a man's perfect life can unravel when a beautiful ex-girlfriend shows up out of the blue. The journey to love can be worth revisiting if the feelings are brought to life once again in this hilarious romp through the reality and complexity of relationships past and present
 
http://www.imdb.com/title/tt1233328/

Format;AVI

File Size:912mb

Video
ID : 0
Format : MPEG-4 Visual
Format profile : Advanced Simple@L5
Format settings, BVOP : Yes
Format settings, QPel : No
Format settings, GMC : No warppoints
Format settings, Matrix : Custom
Codec ID : XVID
Codec ID/Hint : XviD
Duration : 1h 19mn
Bit rate : 1 345 Kbps
Width : 680 pixels
Height : 368 pixels
Display aspect ratio : 16:9
Frame rate : 23.976 fps
Color space : YUV
Chroma subsampling : 4:2:0
Bit depth : 8 bits
Scan type : Progressive
Bits/(Pixel*Frame) : 0.224
Stream size : 767 MiB (77%)
Writing library : XviD 1.2.1 (UTC 2008-12-04)

Audio
ID : 1
Format : AC-3
Format/Info : Audio Coding 3
Mode extension : CM (complete main)
Codec ID : 2000
Duration : 1h 19mn
Bit rate mode : Constant
Bit rate : 384 Kbps
Channel(s) : 6 channels
Channel positions : Front: L C R, Side: L R, LFE
Sampling rate : 48.0 KHz
Bit depth : 16 bits
Stream size : 219 MiB (22%)
Alignment : Aligned on interleaves
Interleave, duration : 42 ms (1.00 video frame)
Interleave, preload duration : 512 ms


Duration:1:21

Release Date:2011

Language:English